<svg xmlns="http://www.w3.org/2000/svg" viewBox="0 0 24 24" fill="none" stroke="#000000" stroke-width="1.5" stroke-linecap="round" stroke-linejoin="round">
  <path d="M2 12a10 10 0 0 1 13-9.54"/>
  <path d="M7 20h.01"/>
  <path d="M11 20h.01"/>
  <path d="M15 20h.01"/>
  <path d="M19 20h.01"/>
  <path d="M22 12a10 10 0 0 0-13-9.54"/>
  <path d="M12 7a5 5 0 0 0-5 5"/>
  <path d="M12 7a5 5 0 0 1 5 5"/>
  <path d="M12 11a1 1 0 0 1 1 1"/>
  <path d="M12 11a1 1 0 0 0-1 1"/>
  <path d="M17 12a5 5 0 0 1-5 5"/>
  <path d="M7 12a5 5 0 0 0 5 5"/>
  <path d="M2 12h.01"/>
  <path d="M22 12h.01"/>
</svg>
