<svg width="1200" height="630" viewBox="0 0 1200 630" fill="none" xmlns="http://www.w3.org/2000/svg">
  <defs>
    <!-- Use radial gradients instead of filters for maximum scraper compatibility -->
    <radialGradient id="grad1" cx="50%" cy="50%" r="50%" fx="60%" fy="30%">
      <stop offset="0%" stop-color="#1BC2D9" />
      <stop offset="100%" stop-color="#2ED0E8" />
    </radialGradient>
    
    <radialGradient id="grad2" cx="10%" cy="10%" r="70%">
      <stop offset="0%" stop-color="#F9A05E" stop-opacity="0.6" />
      <stop offset="100%" stop-color="#F9A05E" stop-opacity="0" />
    </radialGradient>
    
    <radialGradient id="grad3" cx="90%" cy="90%" r="70%">
      <stop offset="0%" stop-color="#F9A05E" stop-opacity="0.5" />
      <stop offset="100%" stop-color="#F9A05E" stop-opacity="0" />
    </radialGradient>

    <radialGradient id="grad4" cx="10%" cy="90%" r="60%">
      <stop offset="0%" stop-color="#439DEB" stop-opacity="0.4" />
      <stop offset="100%" stop-color="#439DEB" stop-opacity="0" />
    </radialGradient>
  </defs>

  <!-- Base Color -->
  <rect width="1200" height="630" fill="url(#grad1)"/>
  
  <!-- Content Blobs using gradients -->
  <rect width="1200" height="630" fill="url(#grad2)"/>
  <rect width="1200" height="630" fill="url(#grad3)"/>
  <rect width="1200" height="630" fill="url(#grad4)"/>

  <!-- Content Group: Perfectly centered pair -->
  <g transform="translate(600, 315)">
    <!-- Fingerprint Logo (Specific provided version) -->
    <g transform="translate(-360, -90) scale(7.5)">
      <path d="M12 10a2 2 0 0 0-2 2c0 1.02-.1 2.51-.26 4" stroke="white" stroke-width="1.8" stroke-linecap="round" stroke-linejoin="round"></path>
      <path d="M14 13.12c0 2.38 0 6.38-1 8.88" stroke="white" stroke-width="1.8" stroke-linecap="round" stroke-linejoin="round"></path>
      <path d="M17.29 21.02c.12-.6.43-2.3.5-3.02" stroke="white" stroke-width="1.8" stroke-linecap="round" stroke-linejoin="round"></path>
      <path d="M2 12a10 10 0 0 1 18-6" stroke="white" stroke-width="1.8" stroke-linecap="round" stroke-linejoin="round"></path>
      <path d="M2 16h.01" stroke="white" stroke-width="1.8" stroke-linecap="round" stroke-linejoin="round"></path>
      <path d="M21.8 16c.2-2 .131-5.354 0-6" stroke="white" stroke-width="1.8" stroke-linecap="round" stroke-linejoin="round"></path>
      <path d="M5 19.5C5.5 18 6 15 6 12a6 6 0 0 1 .34-2" stroke="white" stroke-width="1.8" stroke-linecap="round" stroke-linejoin="round"></path>
      <path d="M8.65 22c.21-.66.45-1.32.57-2" stroke="white" stroke-width="1.8" stroke-linecap="round" stroke-linejoin="round"></path>
      <path d="M9 6.8a6 6 0 0 1 9 5.2v2" stroke="white" stroke-width="1.8" stroke-linecap="round" stroke-linejoin="round"></path>
    </g>
    
    <!-- Text "Cipher" -->
    <text x="-160" y="55" font-family="'Inter', sans-serif" font-size="160" font-weight="700" letter-spacing="-0.04em" fill="white">Cipher</text>
  </g>
</svg>
