<svg width="1200" height="630" viewBox="0 0 1200 630" fill="none" xmlns="http://www.w3.org/2000/svg">
  <defs>
    <!-- Use radial gradients instead of filters for maximum scraper compatibility -->
    <radialGradient id="grad1" cx="50%" cy="50%" r="50%" fx="60%" fy="30%">
      <stop offset="0%" stop-color="#1BC2D9" />
      <stop offset="100%" stop-color="#2ED0E8" />
    </radialGradient>
    
    <radialGradient id="grad2" cx="10%" cy="10%" r="70%">
      <stop offset="0%" stop-color="#F9A05E" stop-opacity="0.6" />
      <stop offset="100%" stop-color="#F9A05E" stop-opacity="0" />
    </radialGradient>
    
    <radialGradient id="grad3" cx="90%" cy="90%" r="70%">
      <stop offset="0%" stop-color="#F9A05E" stop-opacity="0.5" />
      <stop offset="100%" stop-color="#F9A05E" stop-opacity="0" />
    </radialGradient>

    <radialGradient id="grad4" cx="10%" cy="90%" r="60%">
      <stop offset="0%" stop-color="#439DEB" stop-opacity="0.4" />
      <stop offset="100%" stop-color="#439DEB" stop-opacity="0" />
    </radialGradient>
  </defs>

  <!-- Base Color -->
  <rect width="1200" height="630" fill="url(#grad1)"/>
  
  <!-- Content Blobs using gradients -->
  <rect width="1200" height="630" fill="url(#grad2)"/>
  <rect width="1200" height="630" fill="url(#grad3)"/>
  <rect width="1200" height="630" fill="url(#grad4)"/>

  <!-- Content Group: Exactly centered like the reference image -->
  <g transform="translate(600, 315)">
    <!-- Fingerprint Logo (Centered horizontally with text) -->
    <g transform="translate(-320, -100) scale(8.33)">
      <path d="M2 12a10 10 0 0 1 13-9.54" stroke="white" stroke-width="1.5" stroke-linecap="round" stroke-linejoin="round"/>
      <path d="M7 20h.01" stroke="white" stroke-width="1.5" stroke-linecap="round" stroke-linejoin="round"/>
      <path d="M11 20h.01" stroke="white" stroke-width="1.5" stroke-linecap="round" stroke-linejoin="round"/>
      <path d="M15 20h.01" stroke="white" stroke-width="1.5" stroke-linecap="round" stroke-linejoin="round"/>
      <path d="M19 20h.01" stroke="white" stroke-width="1.5" stroke-linecap="round" stroke-linejoin="round"/>
      <path d="M22 12a10 10 0 0 0-13-9.54" stroke="white" stroke-width="1.5" stroke-linecap="round" stroke-linejoin="round"/>
      <path d="M12 7a5 5 0 0 0-5 5" stroke="white" stroke-width="1.5" stroke-linecap="round" stroke-linejoin="round"/>
      <path d="M12 7a5 5 0 0 1 5 5" stroke="white" stroke-width="1.5" stroke-linecap="round" stroke-linejoin="round"/>
      <path d="M12 11a1 1 0 0 1 1 1" stroke="white" stroke-width="1.5" stroke-linecap="round" stroke-linejoin="round"/>
      <path d="M12 11a1 1 0 0 0-1 1" stroke="white" stroke-width="1.5" stroke-linecap="round" stroke-linejoin="round"/>
      <path d="M17 12a5 5 0 0 1-5 5" stroke="white" stroke-width="1.5" stroke-linecap="round" stroke-linejoin="round"/>
      <path d="M7 12a5 5 0 0 0 5 5" stroke="white" stroke-width="1.5" stroke-linecap="round" stroke-linejoin="round"/>
      <path d="M2 12h.01" stroke="white" stroke-width="1.5" stroke-linecap="round" stroke-linejoin="round"/>
      <path d="M22 12h.01" stroke="white" stroke-width="1.5" stroke-linecap="round" stroke-linejoin="round"/>
    </g>
    
    <!-- Text -->
    <text x="-120" y="55" font-family="sans-serif" font-size="160" font-weight="700" letter-spacing="-0.04em" fill="white">Cipher</text>
  </g>
</svg>
